<svg xmlns="http://www.w3.org/2000/svg" xmlns:xlink="http://www.w3.org/1999/xlink" width="24" height="24" viewBox="0 0 24 24" fill="none"><defs><rect id="path_0" x="0" y="0" width="24" height="24" /></defs><g opacity="1" transform="translate(0 0)  rotate(0 12 12)"><mask id="bg-mask" fill="white"><use xlink:href="#path_0"></use></mask><g mask="url(#bg-mask)" ><path id="分组 1" fill-rule="evenodd" style="fill:#FFFFFF" transform="translate(3.7499999999999987 1.4976562499999995)  rotate(0 8.251171875 10.496484375000001)" opacity="1" d="M0 20.43C0 20.74 0.25 20.99 0.56 20.99L15.94 20.99C16.25 20.99 16.5 20.74 16.5 20.43L16.5 0.56C16.5 0.25 16.25 0 15.94 0L0.56 0C0.25 0 0 0.25 0 0.56L0 20.43Z M14.72 1.5L1.78 1.5C1.63 1.5 1.5 1.63 1.5 1.78L1.5 4.22C1.5 4.38 1.63 4.5 1.78 4.5L14.72 4.5C14.88 4.5 15 4.38 15 4.22L15 1.78C15 1.62 14.88 1.5 14.72 1.5Z M1.78 19.4923L14.72 19.4923C14.88 19.4923 15 19.3623 15 19.2123L15 6.28234C15 6.13234 14.88 6.00234 14.72 6.00234L1.78 6.00234C1.63 6.00234 1.5 6.13234 1.5 6.28234L1.5 19.2123C1.5 19.3623 1.63 19.4923 1.78 19.4923Z M5.30625 9.97281L5.30625 8.09281C5.30625 7.78281 5.05625 7.53281 4.74625 7.53281L2.86625 7.53281C2.55625 7.53281 2.30625 7.78281 2.30625 8.09281L2.30625 9.97281C2.30625 10.2828 2.55625 10.5328 2.86625 10.5328L4.74625 10.5328C5.05625 10.5328 5.30625 10.2828 5.30625 9.97281Z M9.78047 9.97281L9.78047 8.09281C9.78047 7.78281 9.53047 7.53281 9.22047 7.53281L7.34047 7.53281C7.03047 7.53281 6.78047 7.78281 6.78047 8.09281L6.78047 9.97281C6.78047 10.2828 7.03047 10.5328 7.34047 10.5328L9.22047 10.5328C9.53047 10.5328 9.78047 10.2828 9.78047 9.97281Z M14.257 9.97281L14.257 8.09281C14.257 7.78281 14.007 7.53281 13.697 7.53281L11.817 7.53281C11.507 7.53281 11.257 7.78281 11.257 8.09281L11.257 9.97281C11.257 10.2828 11.507 10.5328 11.817 10.5328L13.697 10.5328C14.007 10.5328 14.257 10.2828 14.257 9.97281Z M5.30391 13.7041L5.30391 11.8241C5.30391 11.5141 5.05391 11.2641 4.74391 11.2641L2.86391 11.2641C2.55391 11.2641 2.30391 11.5141 2.30391 11.8241L2.30391 13.7041C2.30391 14.0141 2.55391 14.2641 2.86391 14.2641L4.74391 14.2641C5.05391 14.2641 5.30391 14.0141 5.30391 13.7041Z M9.77812 13.7041L9.77812 11.8241C9.77812 11.5141 9.52812 11.2641 9.21812 11.2641L7.33812 11.2641C7.02812 11.2641 6.77812 11.5141 6.77812 11.8241L6.77812 13.7041C6.77812 14.0141 7.02812 14.2641 7.33812 14.2641L9.21812 14.2641C9.52812 14.2641 9.77812 14.0141 9.77812 13.7041Z M14.2547 11.8241L14.2547 13.7041C14.2547 14.0141 14.0047 14.2641 13.6947 14.2641L11.8147 14.2641C11.5047 14.2641 11.2547 14.0141 11.2547 13.7041L11.2547 11.8241C11.2547 11.5141 11.5047 11.2641 11.8147 11.2641L13.6947 11.2641C14.0047 11.2641 14.2547 11.5141 14.2547 11.8241Z M5.30391 15.553L5.30391 17.433C5.30391 17.743 5.05391 17.993 4.74391 17.993L2.86391 17.993C2.55391 17.993 2.30391 17.743 2.30391 17.433L2.30391 15.553C2.30391 15.243 2.55391 14.993 2.86391 14.993L4.74391 14.993C5.05391 14.993 5.30391 15.243 5.30391 15.553Z M9.77812 15.553L9.77812 17.433C9.77812 17.743 9.52812 17.993 9.21812 17.993L7.33812 17.993C7.02812 17.993 6.77812 17.743 6.77812 17.433L6.77812 15.553C6.77812 15.243 7.02812 14.993 7.33812 14.993L9.21812 14.993C9.52812 14.993 9.77812 15.243 9.77812 15.553Z M14.2547 15.553L14.2547 17.433C14.2547 17.743 14.0047 17.993 13.6947 17.993L11.8147 17.993C11.5047 17.993 11.2547 17.743 11.2547 17.433L11.2547 15.553C11.2547 15.243 11.5047 14.993 11.8147 14.993L13.6947 14.993C14.0047 14.993 14.2547 15.243 14.2547 15.553Z " /></g></g></svg>