<svg xmlns="http://www.w3.org/2000/svg" xmlns:xlink="http://www.w3.org/1999/xlink" width="16" height="16" viewBox="0 0 16 16" fill="none"><defs><rect id="path_0" x="0" y="0" width="16" height="16" /></defs><g opacity="1" transform="translate(0 0)  rotate(0 8 8)"><mask id="bg-mask" fill="white"><use xlink:href="#path_0"></use></mask><g mask="url(#bg-mask)" ><g opacity="1" transform="translate(3.3333333281249993 3.3333333281249993)  rotate(0 4.666666671875 4.666666671875)"><path id="路径 1" fill-rule="evenodd" style="fill:#0076A8" transform="translate(4.866666671874999 0)  rotate(0 2.233333335937501 2.2333333359375005)" opacity="1" d="M2,1.53L0,3.53L0.93,4.47L2.93,2.47L3.8,3.33L4.47,4L4.47,0L0.47,0L1.13,0.67L2,1.53Z " /><path id="路径 2"  style="fill:#0076A8" transform="translate(6.93333334375 0.6666666718750003)  rotate(0 0.8666666640624996 0.8666666640625)" opacity="1" d="" /><path id="路径 3" fill-rule="evenodd" style="fill:#0076A8" transform="translate(0 0)  rotate(0 4.666666671875 4.666666671875)" opacity="1" d="M1.33,8L1.33,1.33L5.33,1.33L4,0L0,0L0,9.33L9.33,9.33L9.33,5.33L8,4L8,8L1.33,8Z " /></g></g></g></svg>