<svg xmlns="http://www.w3.org/2000/svg" xmlns:xlink="http://www.w3.org/1999/xlink" width="24" height="24" viewBox="0 0 24 24" fill="none"><defs><rect id="path_0" x="0" y="0" width="24" height="24" /></defs><g opacity="1" transform="translate(0 0)  rotate(0 12 12)"><mask id="bg-mask" fill="white"><use xlink:href="#path_0"></use></mask><g mask="url(#bg-mask)" ><path id="分组 1" fill-rule="evenodd" style="fill:#FFFFFF" transform="translate(1.5 3.75)  rotate(0 10.5 8.25)" opacity="1" d="M2.25 0L18.75 0C20.03 0 21 0.97 21 2.25L21 14.25C21 15.53 20.03 16.5 18.75 16.5L2.25 16.5C0.98 16.5 0 15.53 0 14.25L0 2.25C0 0.97 0.98 0 2.25 0Z M18.75 1.5L2.25 1.5C1.8 1.5 1.5 1.8 1.5 2.25L1.5 14.25C1.5 14.7 1.8 15 2.25 15L18.75 15C19.2 15 19.5 14.7 19.5 14.25L19.5 2.25C19.5 1.8 19.2 1.5 18.75 1.5Z M17.105 4.88L15.525 6.45L13.945 4.88C13.875 4.73 13.655 4.65 13.425 4.65C13.195 4.65 13.045 4.73 12.895 4.88L9.225 8.55L7.645 6.98C7.495 6.83 7.275 6.75 7.125 6.75C6.895 6.75 6.745 6.83 6.605 6.98L3.445 10.13C3.145 10.43 3.145 10.88 3.445 11.18C3.755 11.48 4.195 11.48 4.495 11.18L7.125 8.55L8.695 10.13C8.845 10.28 9.075 10.35 9.225 10.35C9.445 10.35 9.595 10.28 9.745 10.13L13.425 6.45L15.005 8.03C15.145 8.18 15.375 8.25 15.525 8.25C15.745 8.25 15.895 8.18 16.055 8.03L18.155 5.93C18.455 5.63 18.455 5.18 18.155 4.88C17.855 4.58 17.395 4.58 17.105 4.88Z " /></g></g></svg>