<svg xmlns="http://www.w3.org/2000/svg" xmlns:xlink="http://www.w3.org/1999/xlink" width="24" height="24" viewBox="0 0 24 24" fill="none"><defs><rect id="path_0" x="0" y="0" width="24" height="24" /></defs><g opacity="1" transform="translate(0 0)  rotate(0 12 12)"><mask id="bg-mask" fill="white"><use xlink:href="#path_0"></use></mask><g mask="url(#bg-mask)" ><path id="分组 1" fill-rule="evenodd" style="fill:#FFFFFF" transform="translate(1.5 1.5)  rotate(0 10.5 10.5)" opacity="1" d="M0 10.5C0 16.3 4.7 21 10.5 21C16.3 21 21 16.3 21 10.5C21 4.7 16.3 0 10.5 0C4.7 0 0 4.7 0 10.5Z M2 10.5C2 15.19 5.81 19 10.5 19C15.19 19 19 15.19 19 10.5C19 5.81 15.19 2 10.5 2C5.81 2 2 5.81 2 10.5Z M10 4.5C9.72 4.5 9.5 4.72 9.5 5L9.5 6C9.5 6.28 9.72 6.5 10 6.5L11 6.5C11.28 6.5 11.5 6.28 11.5 6L11.5 5C11.5 4.72 11.28 4.5 11 4.5L10 4.5Z M10 8.5C9.72 8.5 9.5 8.72 9.5 9L9.5 16C9.5 16.28 9.72 16.5 10 16.5L11 16.5C11.28 16.5 11.5 16.28 11.5 16L11.5 9C11.5 8.72 11.28 8.5 11 8.5L10 8.5Z " /></g></g></svg>