<svg xmlns="http://www.w3.org/2000/svg" xmlns:xlink="http://www.w3.org/1999/xlink" width="16" height="16" viewBox="0 0 16 16" fill="none"><defs><rect id="path_0" x="0" y="0" width="16" height="16" /></defs><g opacity="1" transform="translate(0 0)  rotate(0 8 8)"><mask id="bg-mask" fill="white"><use xlink:href="#path_0"></use></mask><g mask="url(#bg-mask)" ><path id="路径 1" fill-rule="evenodd" style="fill:#222222" transform="translate(0.9292090840733138 4.395875748121238)  rotate(0 7.07079091845678 4.024284344689381)" opacity="1" d="M0.23,1.56L5.29,7.25C5.83,7.78 6.45,8.05 7.16,8.05C7.96,8.05 8.58,7.78 9.03,7.16L13.92,1.47C14.27,1.12 14.18,0.58 13.83,0.23C13.47,-0.13 12.94,-0.04 12.58,0.32L7.69,6C7.52,6.18 7.34,6.27 7.16,6.27C6.98,6.27 6.8,6.18 6.72,6.09L1.56,0.4C1.2,0.05 0.67,-0.04 0.32,0.32C-0.04,0.67 -0.13,1.2 0.23,1.56Z " /></g></g></svg>