<svg xmlns="http://www.w3.org/2000/svg" xmlns:xlink="http://www.w3.org/1999/xlink" width="16" height="16" viewBox="0 0 16 16" fill="none"><defs><rect id="path_0" x="0" y="0" width="16" height="16" /></defs><g opacity="1" transform="translate(0 0)  rotate(0 8 8)"><mask id="bg-mask" fill="white"><use xlink:href="#path_0"></use></mask><g mask="url(#bg-mask)" ><g opacity="1" transform="translate(2 1.3333333281249988)  rotate(0 6 6.666666671875001)"><path id="路径 1" fill-rule="evenodd" style="fill:#0076A8" transform="translate(0 1.6666666718750003)  rotate(0 6 5.833333335937501)" opacity="1" d="M9.83,9.83C9.83,10.29 9.46,10.67 9,10.67L3,10.67C2.54,10.67 2.17,10.29 2.17,9.83L2.17,1L11.5,1C11.78,1 12,0.78 12,0.5C12,0.22 11.78,0 11.5,0L0.5,0C0.22,0 0,0.22 0,0.5C0,0.78 0.22,1 0.5,1L1.17,1L1.17,9.83C1.17,10.85 1.99,11.67 3,11.67L9,11.67C10.01,11.67 10.83,10.85 10.83,9.83L10.83,2.5C10.83,2.22 10.61,2 10.33,2C10.06,2 9.83,2.22 9.83,2.5L9.83,9.83Z " /><path id="路径 2" fill-rule="evenodd" style="fill:#0076A8" transform="translate(4.166666671874999 0)  rotate(0 1.8333333281249997 0.5)" opacity="1" d="M3.17,1C3.44,1 3.67,0.78 3.67,0.5C3.67,0.22 3.44,0 3.17,0L0.5,0C0.22,0 0,0.22 0,0.5C0,0.78 0.22,1 0.5,1L3.17,1Z " /><path id="路径 3" fill-rule="evenodd" style="fill:#0076A8" transform="translate(4.166666671874999 5)  rotate(0 0.5 2.5000000000000004)" opacity="1" d="M0,4.5C0,4.78 0.22,5 0.5,5C0.78,5 1,4.78 1,4.5L1,0.5C1,0.22 0.78,0 0.5,0C0.22,0 0,0.22 0,0.5L0,4.5Z " /><path id="路径 4" fill-rule="evenodd" style="fill:#0076A8" transform="translate(6.833333328124999 5)  rotate(0 0.5 2.5000000000000004)" opacity="1" d="M0,4.5C0,4.78 0.22,5 0.5,5C0.78,5 1,4.78 1,4.5L1,0.5C1,0.22 0.78,0 0.5,0C0.22,0 0,0.22 0,0.5L0,4.5Z " /></g></g></g></svg>