<svg xmlns="http://www.w3.org/2000/svg" xmlns:xlink="http://www.w3.org/1999/xlink" width="16" height="16" viewBox="0 0 16 16" fill="none"><defs><rect id="path_0" x="0" y="0" width="16" height="16" /></defs><g opacity="1" transform="translate(0 0)  rotate(0 8 8)"><mask id="bg-mask" fill="white"><use xlink:href="#path_0"></use></mask><g mask="url(#bg-mask)" ><path id="分组 1" fill-rule="evenodd" style="fill:#0076A8" transform="translate(1 1)  rotate(0 7 7)" opacity="1" d="M14 7C14 3.14 10.86 0 7 0C3.14 0 0 3.14 0 7C0 10.86 3.14 14 7 14C10.86 14 14 10.86 14 7Z M1 7C1 10.31 3.69 13 7 13C10.31 13 13 10.31 13 7C13 3.69 10.31 1 7 1C3.69 1 1 3.69 1 7Z M7.49927 8.77698L9.13927 7.15698C9.32927 6.95698 9.65927 6.95698 9.84927 7.15698C10.0493 7.35698 10.0493 7.67698 9.84927 7.86698L7.34927 10.367C7.24927 10.467 7.11927 10.517 6.98927 10.517C6.85927 10.517 6.72927 10.467 6.63927 10.367L4.14927 7.84698C3.94927 7.64698 3.94927 7.32698 4.14927 7.13698C4.34927 6.93698 4.65927 6.94698 4.85927 7.13698L6.49927 8.80698L6.49927 3.98698C6.49927 3.70698 6.71927 3.48698 6.99927 3.48698C7.27927 3.48698 7.49927 3.71698 7.49927 3.98698L7.49927 8.77698Z " /></g></g></svg>