<svg xmlns="http://www.w3.org/2000/svg" xmlns:xlink="http://www.w3.org/1999/xlink" width="16" height="16" viewBox="0 0 16 16" fill="none"><defs><rect id="path_0" x="0" y="0" width="16" height="16" /></defs><g opacity="1" transform="translate(0 0)  rotate(0 8 8)"><mask id="bg-mask" fill="white"><use xlink:href="#path_0"></use></mask><g mask="url(#bg-mask)" ><g opacity="1" transform="translate(3.3333333281249993 3.3333333281249993)  rotate(0 4.666666671874999 4.666666671874999)"><path id="路径 1" fill-rule="evenodd" style="fill:#0076A8" transform="translate(5.333333343749999 0)  rotate(0 2 1.9999999999999998)" opacity="1" d="M3.93,0.93L3,0L1.47,1.47L0.67,0.67L0,0L0,4L3,4L4,4L3.33,3.33L2.73,2.8L2.4,2.47L3.93,0.93Z " /><path id="路径 2" fill-rule="evenodd" style="fill:#0076A8" transform="translate(0 0)  rotate(0 4.666666671874999 4.666666671874999)" opacity="1" d="M1.33,8L1.33,1.33L4.67,1.33L4.67,0L0,0L0,9.33L9.33,9.33L9.33,4.67L8,4.67L8,8L1.33,8Z " /></g></g></g></svg>