<svg xmlns="http://www.w3.org/2000/svg" xmlns:xlink="http://www.w3.org/1999/xlink" width="16" height="16" viewBox="0 0 16 16" fill="none"><defs><rect id="path_0" x="0" y="0" width="16" height="16" /></defs><g opacity="1" transform="translate(0 0)  rotate(0 8 8)"><mask id="bg-mask" fill="white"><use xlink:href="#path_0"></use></mask><g mask="url(#bg-mask)" ><path id="分组 1" fill-rule="evenodd" style="fill:#0076A8" transform="translate(1 1)  rotate(0 7 7)" opacity="1" d="M14 7C14 3.14 10.86 0 7 0C3.14 0 0 3.14 0 7C0 10.86 3.14 14 7 14C10.86 14 14 10.86 14 7Z M1 7C1 10.31 3.69 13 7 13C10.31 13 13 10.31 13 7C13 3.69 10.31 1 7 1C3.69 1 1 3.69 1 7Z M4.52806 6.98986C4.39806 6.98986 4.26806 6.93986 4.17806 6.84986C3.97806 6.64986 3.97806 6.32986 4.17806 6.13986L6.66806 3.65986L6.66806 3.64986C6.70806 3.61986 6.74806 3.58986 6.79806 3.56986C6.80806 3.55986 6.81806 3.54986 6.82806 3.54986C7.00806 3.46986 7.22806 3.50986 7.37806 3.65986L9.84806 6.15986C10.0481 6.35986 10.0481 6.67986 9.84806 6.86986C9.74806 6.96986 9.61806 7.00986 9.49806 7.00986C9.36806 7.00986 9.23806 6.95986 9.13806 6.86986L7.49806 5.20986L7.49806 9.99986C7.49806 10.2799 7.27806 10.4999 6.99806 10.4999C6.72806 10.4999 6.49806 10.2799 6.49806 9.99986L6.49806 5.22986L4.87806 6.84986C4.78806 6.94986 4.65806 6.98986 4.52806 6.98986Z " /></g></g></svg>